<svg xmlns="http://www.w3.org/2000/svg" viewBox="0 0 320 320"><rect width="320" height="320" rx="160" fill="#fff8f2"/><circle cx="160" cy="160" r="132" fill="#f8ebe6"/><ellipse cx="159" cy="193" rx="84" ry="48" fill="#fff" stroke="#d9c0b4" stroke-width="4"/><ellipse cx="159" cy="191" rx="62" ry="31" fill="#f2d7a0"/><path d="M120 190c16-25 38-35 62-27 20 7 34 22 43 39-37 13-72 9-105-12z" fill="#e8b66e"/><circle cx="166" cy="179" r="14" fill="#d96d62"/><path d="M160 166c-3-10 2-18 12-22 7 8 5 16-12 22z" fill="#6e8a64"/><path d="M79 114c30 3 47 17 56 42" fill="none" stroke="#6e8a64" stroke-width="6" stroke-linecap="round"/><path d="M85 124c-15-3-24-12-25-25 14-4 24 5 25 25zm20 12c-7-15-3-27 10-34 11 11 8 24-10 34z" fill="#9db28a"/></svg>