<svg xmlns="http://www.w3.org/2000/svg" viewBox="0 0 240 240" fill="none"><rect width="240" height="240" rx="120" fill="#FBF5F1"/><path d="M40 121c0-50 33-89 81-89 47 0 83 31 83 80 0 51-35 94-86 94-50 0-78-35-78-85Z" fill="#F3E3E2"/><g stroke-linecap="round" stroke-linejoin="round"><path d="M72 94l103-9 6 69-103 9-6-69Z" fill="#FFF9F3" stroke="#C6A27D" stroke-width="3" stroke-dasharray="7 6"/><path d="M110 128l20-16 28 7-19 10 9 8-6 4-11-7-16 8-5-3 7-10-7-1Z" fill="#718C91" stroke="none"/><path d="M73 70c14-13 31-20 52-20" stroke="#CC8996" stroke-width="4"/><path d="M70 69l12-2-3 11" stroke="#CC8996" stroke-width="4"/><path d="M156 57c8-3 17-2 24 2" stroke="#D6B45C" stroke-width="4"/></g></svg>